<svg width="913" height="299" viewBox="0 0 913 299" fill="none" xmlns="http://www.w3.org/2000/svg">
<path d="M370.065 68.8597C385.874 68.8597 399.554 72.2533 411.09 79.0406C422.612 85.8279 431.514 95.5006 437.781 108.074C444.033 120.646 447.174 135.701 447.174 153.237C447.174 170.774 444.048 185.829 437.781 198.401C431.514 210.974 422.627 220.662 411.09 227.434C399.554 234.222 385.888 237.615 370.065 237.615C354.405 237.615 340.814 234.222 329.292 227.434C317.756 220.647 308.869 210.974 302.602 198.401C296.335 185.829 293.209 170.774 293.209 153.237C293.209 135.701 296.335 120.646 302.602 108.074C308.854 95.5006 317.756 85.8279 329.292 79.0406C340.814 72.2533 354.405 68.8597 370.065 68.8597ZM370.065 91.9275C359.853 91.9275 351.07 94.3345 343.746 99.1185C336.408 103.917 330.766 110.869 326.821 119.959C322.861 129.063 320.896 140.141 320.896 153.208C320.896 166.109 322.876 177.157 326.821 186.337C330.781 195.516 336.422 202.513 343.746 207.312C351.07 212.111 359.853 214.503 370.065 214.503C380.44 214.503 389.297 212.111 396.636 207.312C403.96 202.513 409.602 195.516 413.561 186.337C417.521 177.157 419.486 166.109 419.486 153.208C419.486 140.141 417.506 129.048 413.561 119.959C409.602 110.869 403.96 103.917 396.636 99.1185C389.297 94.3345 380.44 91.9275 370.065 91.9275Z" fill="#242C33"/>
<path d="M508.445 55.2103V200.39C508.445 206.519 509.516 210.735 511.66 213.052C513.803 215.37 517.346 216.521 522.288 216.521C525.251 216.521 527.767 216.312 529.821 215.893C531.875 215.489 534.48 214.697 537.606 213.531L534.644 233.384C531.845 234.715 528.63 235.747 525.013 236.494C521.38 237.242 517.763 237.615 514.146 237.615C503.1 237.615 494.988 234.76 489.807 229.049C484.612 223.338 482.022 214.532 482.022 202.617V55.2103H508.445V55.2103Z" fill="#242C33"/>
<path d="M573.183 90.1933C567.408 90.1933 563.016 88.7432 559.965 85.8429C556.913 82.9426 555.395 78.8612 555.395 73.554C555.395 68.2617 556.913 64.2102 559.965 61.3996C563.016 58.589 567.423 57.1837 573.183 57.1837C578.781 57.1837 583.112 58.589 586.149 61.3996C589.201 64.2102 590.719 68.2617 590.719 73.554C590.719 78.8463 589.186 82.9426 586.149 85.8429C583.098 88.7432 578.781 90.1933 573.183 90.1933ZM586.283 111.049V235.134H559.846V111.049H586.283Z" fill="#242C33"/>
<path d="M693.76 237.615C686.51 237.615 679.886 236.21 673.872 233.399C667.858 230.589 662.797 226.657 658.673 221.619C654.55 216.581 651.513 210.915 649.533 204.621L652.749 200.405L650.769 235.149H627.547V55.2103H653.984V142.324L651.022 138.108C654.148 129.512 659.507 122.44 667.084 116.894C674.661 111.348 683.801 108.582 694.519 108.582C704.403 108.582 713.498 111.153 721.82 116.281C730.141 121.409 736.691 128.779 741.469 138.362C746.248 147.96 748.629 159.621 748.629 173.36C748.629 186.755 746.203 198.267 741.335 207.85C736.467 217.448 729.888 224.803 721.567 229.931C713.245 235.044 703.971 237.615 693.76 237.615ZM688.073 216.267C698.776 216.267 707.142 212.425 713.156 204.725C719.17 197.026 722.177 186.486 722.177 173.076C722.177 159.666 719.215 149.171 713.275 141.562C707.351 133.952 699.029 130.14 688.311 130.14C681.389 130.14 675.375 131.919 670.27 135.477C665.164 139.035 661.159 144.043 658.286 150.487C655.399 156.945 653.955 164.629 653.955 173.569C653.955 182.345 655.354 189.91 658.152 196.279C660.951 202.647 664.94 207.566 670.136 211.049C675.361 214.532 681.33 216.267 688.073 216.267Z" fill="#242C33"/>
<path d="M782.48 235.134V111.049H804.973L807.444 133.384C810.733 125.281 815.631 119.122 822.151 114.891C828.656 110.675 836.695 108.567 846.251 108.567C848.722 108.567 851.193 108.776 853.664 109.195C856.136 109.613 858.19 110.226 859.842 111.064L856.136 134.386C854.32 133.728 852.31 133.19 850.077 132.771C847.859 132.367 844.852 132.143 841.056 132.143C835.95 132.143 830.919 133.503 825.977 136.239C821.035 138.975 816.956 143.057 813.74 148.528C810.525 153.985 808.917 160.937 808.917 169.369V235.134H782.48V235.134Z" fill="#242C33"/>
<path d="M80.8754 134.64C75.576 134.64 71.0506 130.603 70.5147 125.206C69.9491 119.45 74.132 114.338 79.8631 113.769C108.578 110.929 129.627 85.1552 126.799 56.3166C126.233 50.5609 130.416 45.448 136.147 44.8799C141.878 44.3118 146.969 48.5127 147.535 54.2685C151.509 94.5886 122.065 130.618 81.9174 134.595C81.5601 134.625 81.2177 134.64 80.8754 134.64Z" fill="#50B0BB"/>
<path d="M84.8201 89.8943C96.4944 89.8943 105.958 80.3898 105.958 68.6653C105.958 56.9409 96.4944 47.4363 84.8201 47.4363C73.1459 47.4363 63.6821 56.9409 63.6821 68.6653C63.6821 80.3898 73.1459 89.8943 84.8201 89.8943Z" fill="#50B0BB"/>
<path d="M238.934 134.64C238.592 134.64 238.25 134.625 237.907 134.595C218.466 132.666 200.916 123.263 188.531 108.088C176.131 92.9142 170.355 73.8081 172.275 54.2685C172.841 48.5127 177.917 44.3118 183.663 44.8799C189.394 45.448 193.577 50.5758 193.011 56.3166C191.642 70.2799 195.765 83.9592 204.637 94.7979C213.509 105.652 226.043 112.379 239.962 113.755C245.693 114.323 249.876 119.45 249.31 125.191C248.759 130.603 244.219 134.64 238.934 134.64Z" fill="#FCB349"/>
<path d="M234.99 89.8943C246.664 89.8943 256.128 80.3898 256.128 68.6653C256.128 56.9409 246.664 47.4363 234.99 47.4363C223.315 47.4363 213.852 56.9409 213.852 68.6653C213.852 80.3898 223.315 89.8943 234.99 89.8943Z" fill="#FCB349"/>
<path d="M183.082 247.437C177.857 247.437 173.347 243.506 172.737 238.153C168.152 197.893 197.045 161.415 237.118 156.81C242.835 156.153 248 160.279 248.655 166.02C249.31 171.76 245.201 176.948 239.485 177.606C210.815 180.895 190.168 206.998 193.443 235.776C194.098 241.517 189.989 246.705 184.273 247.363C183.886 247.422 183.484 247.437 183.082 247.437Z" fill="#747C75"/>
<path d="M235.243 244.014C246.917 244.014 256.381 234.509 256.381 222.785C256.381 211.06 246.917 201.556 235.243 201.556C223.568 201.556 214.105 211.06 214.105 222.785C214.105 234.509 223.568 244.014 235.243 244.014Z" fill="#747C75"/>
<path d="M137.665 248.155C137.382 248.155 137.085 248.14 136.787 248.125C131.056 247.647 126.784 242.594 127.26 236.838C128.406 222.845 124.074 209.255 115.039 198.536C106.003 187.832 93.3647 181.284 79.4314 180.133C73.7003 179.654 69.4281 174.601 69.9044 168.845C70.3808 163.09 75.4271 158.814 81.1433 159.277C100.614 160.892 118.299 170.041 130.937 185.006C143.575 199.986 149.634 219.003 148.026 238.557C147.579 244.014 143.024 248.155 137.665 248.155Z" fill="#F15D3B"/>
<path d="M85.0881 246.361C96.7623 246.361 106.226 236.857 106.226 225.132C106.226 213.408 96.7623 203.903 85.0881 203.903C73.4139 203.903 63.95 213.408 63.95 225.132C63.95 236.857 73.4139 246.361 85.0881 246.361Z" fill="#F15D3B"/>
</svg>
